# Blender v2.91.2 OBJ File: ''
# www.blender.org
mtllib wine.mtl
o tini.001_Cylinder.007
v 0.039629 0.031391 -0.007998
v 0.058481 0.200456 -0.141135
v 0.028515 0.032523 -0.028643
v 0.007658 0.031404 -0.039684
v -0.000193 0.200529 -0.152758
v 0.056761 0.211150 -0.137033
v 0.141056 0.200533 -0.058644
v 0.104881 0.211150 -0.104881
v 0.108007 0.200589 -0.107987
v 0.037631 0.032480 0.015011
v 0.022260 0.031404 0.033733
v 0.152761 0.200533 -0.000200
v 0.137033 0.211150 -0.056761
v 0.141209 0.200534 0.058274
v 0.148324 0.211150 0.000000
v -0.007850 0.031961 0.040029
v 0.108169 0.200505 0.107840
v 0.137033 0.211150 0.056761
v 0.058480 0.200456 0.141135
v 0.104881 0.211150 0.104881
v -0.033453 0.031416 0.022719
v -0.000193 0.200529 0.152758
v 0.056761 0.211150 0.137033
v -0.039396 0.030966 -0.007752
v -0.058666 0.200505 0.141026
v -0.056761 0.211150 0.137033
v -0.108160 0.200533 0.107876
v -0.022672 0.031957 -0.033933
v -0.141209 0.200534 0.058273
v -0.104881 0.211150 0.104881
v -0.152761 0.200533 -0.000200
v -0.137033 0.211150 0.056761
v -0.141056 0.200533 -0.058644
v -0.148324 0.211150 0.000000
v -0.107876 0.200533 -0.108160
v -0.137033 0.211150 -0.056761
v 0.096060 0.211150 0.096060
v 0.026877 0.163819 0.113396
v 0.051987 0.211150 0.125509
v -0.104881 0.211150 -0.104881
v -0.058461 0.200590 -0.141100
v -0.056761 0.211150 -0.137033
v 0.005255 -0.210985 0.101306
v -0.080097 -0.211083 0.057838
v -0.022797 -0.211102 -0.096172
v 0.014451 0.019373 -0.022313
v 0.025996 0.019373 -0.005559
v 0.020007 0.019379 0.018487
v -0.010156 0.018295 -0.024520
v -0.025994 0.019637 -0.005931
v -0.020130 0.019031 0.018145
v -0.003717 0.013243 0.022176
v 0.020980 -0.000900 -0.003402
v 0.010878 -0.000962 0.016879
v -0.016952 -0.000127 0.010777
v -0.019701 -0.000565 -0.003983
v -0.010878 -0.000962 -0.016879
v 0.004630 -0.000528 -0.019531
v 0.000922 -0.173830 -0.021821
v 0.010338 -0.160786 -0.016762
v 0.019790 -0.173700 -0.008087
v 0.019712 -0.173700 0.008276
v -0.012377 -0.174018 -0.017591
v -0.021775 -0.173636 -0.000640
v -0.016377 -0.160740 0.010990
v -0.008118 -0.173742 0.019989
v 0.007836 -0.173778 0.020159
v 0.096133 -0.211083 -0.022788
v 0.051862 -0.211083 -0.084090
v 0.084060 -0.211066 0.051844
v -0.095207 -0.210790 -0.033774
v 0.000000 0.211150 -0.135849
v 0.000000 0.211150 -0.148324
v 0.051987 0.211150 -0.125509
v 0.125509 0.211150 -0.051987
v 0.096060 0.211150 -0.096060
v 0.135849 0.211150 0.000000
v 0.125509 0.211150 0.051987
v 0.000000 0.211150 0.135849
v 0.000000 0.211150 0.148324
v -0.051987 0.211150 0.125509
v -0.125509 0.211150 0.051987
v -0.096060 0.211150 0.096060
v -0.135849 0.211150 0.000000
v -0.125509 0.211150 -0.051987
v -0.051987 0.211150 -0.125509
v -0.096060 0.211150 -0.096060
v -0.096324 0.163876 0.064364
v 0.081110 0.163910 0.081110
v 0.081110 0.163910 -0.081110
v -0.043896 0.163910 -0.105975
v 0.022597 0.163849 -0.113611
v -0.043896 0.163910 0.105975
v 0.105975 0.163910 -0.043896
v 0.113605 0.163834 0.022595
v -0.114707 0.163910 0.000000
v -0.099195 0.163837 -0.061182
vt 0.171688 0.454880
vt 0.027011 0.484763
vt 0.026277 0.462102
vt 0.174903 0.400777
vt 0.182462 0.455565
vt 0.174877 0.563766
vt 0.027442 0.504136
vt 0.182462 0.511136
vt 0.171821 0.512104
vt 0.185500 0.561454
vt 0.437282 0.439451
vt 0.358529 0.353729
vt 0.444594 0.418486
vt 0.191114 0.598860
vt 0.180651 0.602346
vt 0.566723 0.644109
vt 0.699147 0.660451
vt 0.565203 0.667300
vt 0.708872 0.556352
vt 0.712514 0.606007
vt 0.701700 0.604209
vt 0.710073 0.660660
vt 0.455229 0.296109
vt 0.492892 0.405943
vt 0.463346 0.404680
vt 0.701607 0.716770
vt 0.712514 0.715138
vt 0.708867 0.764298
vt 0.702678 0.343644
vt 0.565203 0.407718
vt 0.566939 0.378580
vt 0.709603 0.296109
vt 0.713538 0.345074
vt 0.700291 0.399757
vt 0.702736 0.456008
vt 0.568403 0.432571
vt 0.711180 0.399576
vt 0.713538 0.454206
vt 0.709665 0.503798
vt 0.162352 0.709829
vt 0.027076 0.738266
vt 0.026277 0.708489
vt 0.177775 0.656951
vt 0.167023 0.654901
vt 0.173225 0.710263
vt 0.162368 0.766801
vt 0.856022 0.150132
vt 0.911498 0.195515
vt 0.861341 0.194811
vt 0.489192 0.478366
vt 0.440318 0.583833
vt 0.459570 0.476544
vt 0.173225 0.765588
vt 0.167103 0.816967
vt 0.191114 0.362018
vt 0.180731 0.358534
vt 0.632468 0.068332
vt 0.714385 0.026277
vt 0.802164 0.157618
vt 0.450548 0.440400
vt 0.461821 0.419414
vt 0.479743 0.466626
vt 0.457339 0.458745
vt 0.510972 0.457931
vt 0.498902 0.453056
vt 0.499138 0.429235
vt 0.484792 0.421591
vt 0.897261 0.298997
vt 0.902165 0.316443
vt 0.881468 0.314694
vt 0.882333 0.564382
vt 0.896042 0.560308
vt 0.899518 0.576618
vt 0.911415 0.574847
vt 0.882478 0.792633
vt 0.898772 0.810055
vt 0.883859 0.810268
vt 0.279989 0.794003
vt 0.282856 0.811432
vt 0.268532 0.792805
vt 0.261487 0.810598
vt 0.247075 0.792807
vt 0.275699 0.627996
vt 0.265213 0.640151
vt 0.253349 0.628001
vt 0.904349 0.727206
vt 0.916342 0.737982
vt 0.893060 0.739910
vt 0.429707 0.754064
vt 0.461278 0.822043
vt 0.388584 0.822043
vt 0.444992 0.728849
vt 0.506843 0.681373
vt 0.512649 0.770629
vt 0.435881 0.716511
vt 0.424927 0.639319
vt 0.412116 0.717477
vt 0.345023 0.679104
vt 0.404196 0.734344
vt 0.337147 0.770658
vt 0.408384 0.747089
vt 0.442416 0.744793
vt 0.888951 0.478205
vt 0.877702 0.475642
vt 0.910448 0.970631
vt 0.900962 0.972948
vt 0.882333 0.972948
vt 0.973723 0.792464
vt 0.973723 0.958225
vt 0.963002 0.955215
vt 0.905100 0.478385
vt 0.191605 0.294218
vt 0.245345 0.284688
vt 0.193945 0.305980
vt 0.238683 0.274717
vt 0.284685 0.245347
vt 0.294214 0.191605
vt 0.274714 0.238684
vt 0.294213 0.140648
vt 0.305975 0.193945
vt 0.284683 0.086908
vt 0.305975 0.138308
vt 0.238681 0.057538
vt 0.274713 0.093570
vt 0.191603 0.038038
vt 0.245343 0.047567
vt 0.140647 0.038040
vt 0.193943 0.026277
vt 0.086907 0.047570
vt 0.138307 0.026277
vt 0.093570 0.057540
vt 0.047567 0.086911
vt 0.038038 0.140652
vt 0.057538 0.093573
vt 0.038039 0.191609
vt 0.026277 0.138312
vt 0.057539 0.238687
vt 0.026277 0.193949
vt 0.086909 0.284690
vt 0.047569 0.245350
vt 0.140649 0.294219
vt 0.093571 0.274719
vt 0.138310 0.305980
vt 0.369027 0.086619
vt 0.536650 0.051164
vt 0.554442 0.206096
vt 0.772018 0.648796
vt 0.821808 0.691933
vt 0.773176 0.698730
vt 0.253217 0.358534
vt 0.297396 0.386066
vt 0.247627 0.396191
vt 0.779279 0.296109
vt 0.824211 0.325634
vt 0.773971 0.338424
vt 0.778631 0.740997
vt 0.829779 0.742185
vt 0.292025 0.447999
vt 0.244274 0.444113
vt 0.821545 0.387464
vt 0.772808 0.388376
vt 0.243668 0.495007
vt 0.292049 0.511808
vt 0.775965 0.438359
vt 0.824211 0.429668
vt 0.245902 0.541124
vt 0.857627 0.050557
vt 0.911498 0.026277
vt 0.904047 0.079584
vt 0.297396 0.558889
vt 0.250635 0.575441
vt 0.782617 0.556352
vt 0.821738 0.623934
vt 0.775333 0.598799
vt 0.854718 0.099476
vt 0.904503 0.143906
vt 0.185500 0.403202
vt 0.800663 0.794739
vt 0.829319 0.899701
vt 0.772018 0.899701
vt 0.568914 0.626992
vt 0.719464 0.559500
vt 0.512649 0.299170
vt 0.719464 0.761148
vt 0.720253 0.298998
vt 0.720254 0.500649
vt 0.497369 0.586765
vt 0.177775 0.814502
vt 0.794288 0.066063
vt 0.750727 0.209004
vt 0.678032 0.209004
vt 0.626662 0.157589
vt 0.442752 0.461319
vt 0.512649 0.428132
vt 0.243668 0.811432
vt 0.915757 0.301803
vt 0.916342 0.556352
vt 0.905364 0.792464
vt 0.876765 0.296109
vt 0.915757 0.475956
vt 0.502123 0.243555
vt 0.437781 0.243555
vt 0.380055 0.206840
vt 0.414535 0.041127
vt 0.481314 0.026277
vt 0.574103 0.103486
vt 0.574108 0.167826
vt 0.358529 0.150108
vt 0.782963 0.480764
vt 0.829779 0.571713
vn 0.3821 -0.0914 -0.9196
vn 0.5442 -0.6469 -0.5342
vn 0.3726 -0.6042 -0.7043
vn 0.1937 -0.0839 -0.9775
vn 0.1805 0.3773 -0.9084
vn 0.8285 -0.0926 -0.5522
vn 0.7348 -0.6612 -0.1512
vn 0.5141 0.3785 -0.7697
vn 0.5541 -0.0894 -0.8276
vn 0.8277 -0.0892 -0.5541
vn 0.7682 0.3818 -0.5140
vn 0.9778 -0.0874 0.1904
vn 0.7130 -0.6439 0.2775
vn 0.9772 -0.0838 -0.1951
vn 0.9064 0.3814 -0.1814
vn 0.9958 -0.0913 -0.0000
vn 0.8271 -0.0932 0.5543
vn 0.4028 -0.6435 0.6509
vn 0.9068 0.3815 0.1793
vn 0.8282 -0.0941 0.5525
vn 0.7696 0.3799 0.5133
vn 0.3793 -0.0928 0.9206
vn 0.0358 -0.6280 0.7774
vn 0.5159 0.3742 0.7706
vn 0.5547 -0.0856 0.8277
vn 0.1804 0.3773 0.9084
vn 0.0002 -0.0916 0.9958
vn -0.5537 -0.0957 0.8272
vn -0.6328 -0.6524 0.4170
vn -0.4447 -0.5873 0.6763
vn -0.1823 0.3747 0.9090
vn -0.1960 -0.0858 0.9768
vn -0.5145 0.3799 0.7687
vn -0.7042 -0.0912 0.7041
vn -0.9765 -0.0953 0.1933
vn -0.7299 -0.6681 -0.1443
vn -0.7692 0.3814 0.5127
vn -0.8290 -0.0835 0.5530
vn -0.9068 0.3815 0.1793
vn -0.9958 -0.0912 -0.0001
vn -0.8270 -0.0952 -0.5541
vn -0.4333 -0.6493 -0.6250
vn -0.9064 0.3814 -0.1814
vn -0.9772 -0.0837 -0.1951
vn -0.7680 0.3814 -0.5145
vn -0.7042 -0.0914 -0.7041
vn -0.4816 0.4228 -0.7677
vn -0.3600 0.3923 -0.8465
vn -0.3816 0.4140 -0.8264
vn -0.1951 -0.0958 -0.9761
vn -0.0860 -0.6626 -0.7440
vn -0.5130 0.3817 -0.7688
vn -0.5531 -0.0790 -0.8293
vn -0.1811 0.3790 -0.9075
vn -0.1953 -0.0999 -0.9756
vn 0.0468 -0.1752 0.9834
vn -0.7936 -0.1832 0.5802
vn -0.2585 -0.1854 -0.9481
vn 0.6258 -0.7672 -0.1404
vn 0.4844 -0.7668 0.4211
vn -0.2634 -0.7595 -0.5948
vn 0.0881 -0.8024 -0.5902
vn -0.6249 -0.7646 -0.1578
vn -0.5588 -0.7392 0.3759
vn -0.1498 -0.6495 0.7455
vn -0.6327 -0.4765 0.6104
vn 0.4798 -0.7306 -0.4858
vn 0.7167 -0.2913 0.6336
vn 0.4748 -0.1760 0.8623
vn 0.9477 -0.3142 0.0564
vn -0.8477 -0.3071 0.4327
vn -0.9382 -0.2977 -0.1764
vn -0.9363 -0.2874 -0.2016
vn -0.5344 -0.3223 -0.7814
vn -0.5739 -0.2834 -0.7683
vn -0.1475 -0.3600 -0.9212
vn 0.4175 -0.3246 -0.8487
vn 0.3628 -0.3022 -0.8815
vn 0.6371 -0.4060 -0.6552
vn 0.5388 -0.0632 -0.8401
vn 0.5234 -0.0391 -0.8512
vn 0.5853 -0.1111 -0.8031
vn -0.8278 -0.0335 0.5601
vn -0.7728 0.6346 0.0088
vn -0.8252 -0.1466 0.5455
vn 0.4237 0.9012 -0.0915
vn 0.9561 -0.1864 -0.2263
vn 0.5177 -0.1861 -0.8351
vn 0.1057 0.9026 0.4172
vn 0.8235 -0.1852 0.5363
vn -0.2959 0.8987 0.3238
vn -0.9261 -0.1717 -0.3359
vn -0.5110 0.7393 -0.4385
vn 0.1823 0.9023 -0.3907
vn 0.3637 0.9012 0.2358
vn 0.9255 0.0223 0.3782
vn 0.9992 -0.0046 0.0404
vn 0.9641 0.0006 -0.2656
vn 0.6941 0.0123 -0.7198
vn -0.1758 0.0161 -0.9843
vn -0.2957 0.0071 -0.9553
vn -0.3032 0.0065 -0.9529
vn -0.9794 0.0131 -0.2016
vn -0.8308 0.0054 0.5566
vn -0.0479 -0.0734 0.9961
vn -0.2574 0.0156 0.9662
vn 0.3722 0.0111 0.9281
vn 0.7073 0.0010 0.7069
vn 0.6871 0.0150 -0.7264
vn 0.0000 1.0000 -0.0000
vn 0.3170 0.9441 -0.0906
vn 0.0003 1.0000 0.0005
vn -0.2131 0.9129 0.3482
vn 0.6295 0.4101 0.6600
vn 0.5331 0.4366 0.7247
vn 0.5087 0.4019 0.7613
vn -0.1839 0.3341 -0.9244
vn 0.0190 0.4088 0.9124
vn -0.0251 0.4155 0.9093
vn -0.1831 0.3453 0.9205
vn 0.1400 0.4330 0.8905
vn 0.1285 0.4420 -0.8878
vn 0.1355 0.4366 -0.8894
vn 0.1786 0.4019 -0.8981
vn -0.4648 0.4371 0.7700
vn -0.5087 0.4019 0.7613
vn 0.6317 0.4089 -0.6586
vn 0.5306 0.4330 -0.7287
vn 0.6607 0.4155 -0.6252
vn -0.7613 0.4019 0.5087
vn -0.7614 0.4020 0.5087
vn 0.7803 0.3452 -0.5214
vn -0.8893 0.4371 0.1348
vn -0.8905 0.4330 0.1400
vn -0.8807 0.4626 0.1016
vn 0.8731 0.4371 -0.2158
vn 0.5954 0.8034 0.0039
vn 0.8981 0.4019 -0.1786
vn 0.8834 0.4228 0.2023
vn 0.3482 0.9341 0.0788
vn 0.8746 0.4526 0.1740
vn -0.8357 0.4088 -0.3667
vn -0.7691 0.4330 -0.4701
vn -0.7613 0.4019 -0.5087
vn 0.1808 0.3761 -0.9088
vn 0.5143 0.3780 -0.7698
vn 0.7695 0.3790 -0.5141
vn 0.9087 0.3764 -0.1808
vn 0.9087 0.3763 0.1808
vn 0.7703 0.3764 0.5147
vn 0.5143 0.3780 0.7698
vn 0.1808 0.3761 0.9088
vn -0.1803 0.3817 0.9065
vn -0.5147 0.3763 0.7704
vn -0.7703 0.3764 0.5147
vn -0.9087 0.3763 0.1808
vn -0.9087 0.3764 -0.1808
vn -0.7704 0.3763 -0.5147
vn -0.4698 0.3980 -0.7880
vn -0.5141 0.3790 -0.7694
vn -0.1803 0.3817 -0.9065
vn 0.7961 -0.2554 -0.5486
vn 0.9490 -0.2546 -0.1860
vn 0.0958 -0.1840 -0.9782
vn 0.4401 0.8979 0.0021
vn 0.3085 0.8978 0.3143
vn -0.0024 0.9090 0.4167
vn -0.1422 0.9023 -0.4070
vn 0.2436 0.9071 -0.3433
vn 0.7024 0.0127 -0.7117
vn -0.1690 0.0166 -0.9855
vn -0.8252 0.0095 -0.5648
vn 0.8948 0.0236 0.4458
vn -0.1604 0.9442 0.2878
vn 0.0013 1.0000 0.0032
vn 0.0016 1.0000 -0.0028
vn -0.0002 1.0000 0.0016
vn 0.0020 1.0000 0.0001
vn -0.0021 1.0000 0.0014
vn 0.6681 0.4123 0.6193
vn 0.1786 0.4020 0.8981
vn 0.0927 0.4692 -0.8782
vn 0.5087 0.4019 -0.7613
vn -0.8981 0.4020 0.1786
vn -0.9205 0.3453 -0.1831
vn -0.8496 0.4155 -0.3248
vn 0.7837 0.3341 0.5237
usemtl Material.005
s 1
f 2/1/1 3/2/2 4/3/3
f 5/4/4 6/5/5 2/1/1
f 3/2/2 7/6/6 1/7/7
f 2/1/1 8/8/8 9/9/9
f 9/9/10 13/10/11 7/6/6
f 1/11/7 14/12/12 10/13/13
f 7/6/14 15/14/15 12/15/16
f 10/16/13 17/17/17 11/18/18
f 12/19/16 18/20/19 14/21/12
f 14/21/20 20/22/21 17/17/17
f 19/23/22 16/24/23 11/25/18
f 20/22/24 19/26/22 17/17/25
f 23/27/26 22/28/27 19/26/22
f 25/29/28 21/30/29 16/31/30
f 22/32/27 26/33/31 25/29/32
f 26/33/33 27/34/34 25/29/28
f 29/35/35 24/36/36 21/30/29
f 30/37/37 29/35/38 27/34/34
f 32/38/39 31/39/40 29/35/35
f 33/40/41 28/41/42 24/42/36
f 34/43/43 33/40/44 31/44/40
f 36/45/45 35/46/46 33/40/41
f 37/47/47 38/48/48 39/49/49
f 28/50/42 5/51/50 4/52/51
f 40/53/52 41/54/53 35/46/46
f 42/55/54 5/4/50 41/56/55
f 43/57/56 44/58/57 45/59/58
f 47/60/59 10/13/13 48/61/60
f 49/62/61 4/52/51 46/63/62
f 24/64/36 49/62/61 50/65/63
f 51/66/64 24/64/36 50/65/63
f 52/67/65 16/24/23 51/66/66
f 11/25/18 52/67/65 48/61/60
f 46/63/67 1/11/7 47/60/59
f 48/68/68 54/69/69 53/70/70
f 52/71/65 51/72/66 55/73/71
f 51/72/66 56/74/72 55/73/71
f 50/75/73 57/76/74 56/77/72
f 57/78/74 49/79/75 58/80/76
f 58/80/77 46/81/78 53/82/79
f 59/83/80 60/84/81 61/85/82
f 65/86/83 64/87/84 66/88/85
f 61/89/86 68/90/87 69/91/88
f 67/92/89 43/93/56 70/94/90
f 66/95/91 44/96/57 43/93/56
f 64/97/84 71/98/92 44/96/57
f 63/99/93 45/100/58 71/98/92
f 59/101/94 69/91/88 45/100/58
f 62/102/95 70/94/90 68/90/87
f 53/70/96 62/103/97 61/104/98
f 58/80/99 60/84/81 59/83/80
f 57/76/100 59/105/101 63/106/102
f 56/77/103 63/106/93 64/107/84
f 55/73/104 64/87/84 65/86/83
f 52/71/105 65/86/83 66/88/106
f 54/108/69 66/109/106 67/110/107
f 54/69/69 67/111/107 62/103/108
f 53/82/96 61/85/98 60/84/109
f 72/112/110 6/113/110 73/114/110
f 74/115/110 8/116/110 6/113/110
f 75/117/110 8/116/110 76/118/110
f 77/119/110 13/120/110 75/117/110
f 77/119/110 18/121/110 15/122/110
f 37/123/110 18/121/110 78/124/110
f 39/125/110 20/126/110 37/123/110
f 79/127/110 23/128/110 39/125/110
f 79/127/110 26/129/110 80/130/110
f 81/131/110 30/132/110 26/129/110
f 82/133/110 30/132/110 83/134/110
f 84/135/110 32/136/110 82/133/110
f 85/137/110 34/138/110 84/135/110
f 85/137/110 40/139/110 36/140/110
f 86/141/110 40/139/110 87/142/110
f 86/141/110 73/114/110 42/143/110
f 88/144/111 89/145/112 90/146/113
f 87/147/114 91/148/115 86/149/116
f 39/150/49 38/151/48 79/152/117
f 72/153/118 92/154/119 74/155/120
f 72/156/118 91/148/121 92/157/119
f 79/152/122 93/158/123 81/159/124
f 74/155/125 90/160/113 76/161/126
f 83/162/127 93/158/128 88/163/129
f 75/164/130 90/160/130 94/165/131
f 83/162/127 88/163/129 82/166/132
f 77/167/133 94/168/134 95/169/135
f 82/166/136 96/170/137 84/171/138
f 84/172/139 97/173/140 85/174/141
f 78/175/142 89/176/143 37/47/144
f 2/1/1 9/9/9 3/2/2
f 5/4/4 73/177/145 6/5/5
f 3/2/2 9/9/10 7/6/6
f 2/1/1 6/5/146 8/8/8
f 1/178/7 7/179/14 12/180/16
f 9/9/10 8/8/147 13/10/11
f 1/181/7 12/19/16 14/21/12
f 7/6/14 13/10/148 15/14/15
f 10/16/13 14/21/20 17/17/17
f 12/19/16 15/182/149 18/20/19
f 11/18/18 17/17/25 19/26/22
f 14/21/20 18/20/150 20/22/21
f 19/23/22 22/183/27 16/24/23
f 20/22/24 23/27/151 19/26/22
f 22/32/27 25/29/32 16/31/23
f 23/27/26 80/184/152 22/28/27
f 25/29/28 27/34/34 21/30/29
f 22/32/27 80/185/153 26/33/31
f 27/34/34 29/35/38 21/30/29
f 26/33/33 30/37/154 27/34/34
f 29/35/35 31/39/40 24/36/36
f 30/37/37 32/38/155 29/35/38
f 31/44/40 33/40/44 24/42/36
f 32/38/39 34/186/156 31/39/40
f 33/40/41 35/46/46 28/41/42
f 34/43/43 36/45/157 33/40/44
f 35/46/46 41/54/53 28/41/42
f 36/45/45 40/53/158 35/46/46
f 37/47/47 89/176/159 38/48/48
f 28/50/42 41/187/55 5/51/50
f 40/53/52 42/188/160 41/54/53
f 4/3/3 5/4/4 2/1/1
f 42/55/54 73/177/161 5/4/50
f 44/58/57 71/189/92 45/59/58
f 45/59/58 69/190/88 43/57/56
f 69/190/88 68/191/87 43/57/56
f 68/191/87 70/192/90 43/57/56
f 46/63/67 4/52/3 3/193/2
f 47/60/59 1/11/7 10/13/13
f 49/62/61 28/50/42 4/52/51
f 24/64/36 28/50/42 49/62/61
f 51/66/64 21/194/29 24/64/36
f 51/66/64 16/24/30 21/194/29
f 11/25/18 16/24/23 52/67/65
f 10/13/13 11/25/18 48/61/60
f 46/63/67 3/193/2 1/11/7
f 53/82/70 46/81/162 47/195/163
f 54/69/69 48/68/68 52/196/105
f 51/72/66 50/197/73 56/74/72
f 50/75/73 49/198/75 57/76/74
f 58/80/77 49/79/164 46/81/78
f 53/70/70 47/199/163 48/68/68
f 61/89/86 62/102/165 68/90/87
f 62/102/95 67/92/166 70/94/90
f 67/92/89 66/95/167 43/93/56
f 44/96/57 66/95/91 64/97/84
f 71/98/92 64/97/84 63/99/93
f 63/99/93 59/101/168 45/100/58
f 59/101/94 61/89/169 69/91/88
f 58/80/99 53/82/170 60/84/81
f 57/78/100 58/80/171 59/83/101
f 56/77/103 57/76/172 63/106/93
f 55/73/104 56/74/103 64/87/84
f 52/71/105 55/73/104 65/86/83
f 54/69/69 52/196/105 66/200/106
f 53/70/96 54/69/173 62/103/97
f 72/112/110 74/115/110 6/113/110
f 74/115/110 76/118/110 8/116/110
f 75/117/110 13/120/110 8/116/110
f 77/119/110 15/122/110 13/120/110
f 77/119/110 78/124/110 18/121/110
f 37/123/110 20/126/110 18/121/110
f 39/125/110 23/128/110 20/126/110
f 79/127/110 80/130/110 23/128/110
f 79/127/110 81/131/110 26/129/110
f 81/131/110 83/134/110 30/132/110
f 82/133/110 32/136/110 30/132/110
f 84/135/110 34/138/110 32/136/110
f 85/137/110 36/140/110 34/138/110
f 85/137/110 87/142/110 40/139/110
f 86/141/110 42/143/110 40/139/110
f 86/141/110 72/112/110 73/114/110
f 92/201/174 91/202/175 97/203/140
f 88/144/111 93/204/176 38/205/177
f 38/205/177 89/145/112 88/144/111
f 89/145/112 95/206/178 90/146/113
f 95/206/178 94/207/179 90/146/113
f 90/146/113 92/201/174 88/144/111
f 92/201/174 97/203/140 88/144/111
f 97/203/140 96/208/137 88/144/111
f 87/147/114 97/173/180 91/148/115
f 72/156/118 86/149/181 91/148/121
f 79/152/122 38/151/182 93/158/123
f 74/155/125 92/154/174 90/160/113
f 83/162/127 81/159/183 93/158/128
f 75/164/130 76/161/130 90/160/130
f 77/209/133 75/164/184 94/165/134
f 82/166/136 88/163/111 96/170/137
f 78/175/142 77/167/185 95/169/186
f 84/172/139 96/210/137 97/173/140
f 78/175/142 95/169/186 89/176/143
f 87/147/114 85/174/187 97/173/180
